<svg xmlns="https://www.w3.org/2000/svg" xmlns:xlink="https://www.w3.org/1999/xlink">
    <defs>
        <symbol
            id="copy"
            xmlns="http://www.w3.org/2000/svg"
            viewBox="0 0 24 24"
            width="20.8px"
            height="20.8px"
        >
            <path fill="none" d="M0 0h24v24H0z" />
            <path
            className="svg_fill"
            d="M7 6V3a1 1 0 0 1 1-1h12a1 1 0 0 1 1 1v14a1 1 0 0 1-1 1h-3v3c0 .552-.45 1-1.007 1H4.007A1.001 1.001 0 0 1 3 21l.003-14c0-.552.45-1 1.007-1H7zM5.003 8L5 20h10V8H5.003zM9 6h8v10h2V4H9v2z"
            fill="currentColor"
            />
        </symbol>


        <symbol 
            id="share"
            xmlns="http://www.w3.org/2000/svg" 
            width="1.5em" 
            height="1.5em"
        >
            <path fill="none" d="M0 0h24v24H0z" />
            <path
                d="m13.12 17.023-4.199-2.29a4 4 0 1 1 0-5.465l4.2-2.29a4 4 0 1 1 .959 1.755l-4.2 2.29a4.008 4.008 0 0 1 0 1.954l4.199 2.29a4 4 0 1 1-.959 1.755zM6 14a2 2 0 1 0 0-4 2 2 0 0 0 0 4zm11-6a2 2 0 1 0 0-4 2 2 0 0 0 0 4zm0 12a2 2 0 1 0 0-4 2 2 0 0 0 0 4z "
                fill="currentColor"/>
        </symbol>


        <symbol>
        </symbol>
        <symbol id="bookmark"  viewBox="0 0 15 15" fill="none" xmlns="http://www.w3.org/2000/svg">
            <path d="M3 2.5C3 2.22386 3.22386 2 3.5 2H11.5C11.7761 2 12 2.22386 12 2.5V13.5C12 13.6818 11.9014 13.8492 11.7424 13.9373C11.5834 14.0254 11.3891 14.0203 11.235 13.924L7.5 11.5896L3.765 13.924C3.61087 14.0203 3.41659 14.0254 3.25762 13.9373C3.09864 13.8492 3 13.6818 3 13.5V2.5ZM4 3V12.5979L6.97 10.7416C7.29427 10.539 7.70573 10.539 8.03 10.7416L11 12.5979V3H4Z" fill="currentColor" fill-rule="evenodd" clip-rule="evenodd"></path>
        </symbol>

        <symbol id="bookmarkFilled"  viewBox="0 0 15 15" fill="none" xmlns="http://www.w3.org/2000/svg">
            <path d="M3.5 2C3.22386 2 3 2.22386 3 2.5V13.5C3 13.6818 3.09864 13.8492 3.25762 13.9373C3.41659 14.0254 3.61087 14.0203 3.765 13.924L7.5 11.5896L11.235 13.924C11.3891 14.0203 11.5834 14.0254 11.7424 13.9373C11.9014 13.8492 12 13.6818 12 13.5V2.5C12 2.22386 11.7761 2 11.5 2H3.5Z" fill="currentColor" fill-rule="evenodd" clip-rule="evenodd"></path>
        </symbol>

        <symbol id="trash"  viewBox="0 0 15 15" fill="none" xmlns="http://www.w3.org/2000/svg">
            <path d="M5.5 1C5.22386 1 5 1.22386 5 1.5C5 1.77614 5.22386 2 5.5 2H9.5C9.77614 2 10 1.77614 10 1.5C10 1.22386 9.77614 1 9.5 1H5.5ZM3 3.5C3 3.22386 3.22386 3 3.5 3H5H10H11.5C11.7761 3 12 3.22386 12 3.5C12 3.77614 11.7761 4 11.5 4H11V12C11 12.5523 10.5523 13 10 13H5C4.44772 13 4 12.5523 4 12V4L3.5 4C3.22386 4 3 3.77614 3 3.5ZM5 4H10V12H5V4Z" fill="currentColor" fill-rule="evenodd" clip-rule="evenodd"></path>
        </svg>

    </defs>
</svg>